<svg width="20" height="20" viewBox="0 0 20 20" fill="none" xmlns="http://www.w3.org/2000/svg">
<mask id="mask0_373_3097" style="mask-type:luminance" maskUnits="userSpaceOnUse" x="0" y="0" width="20" height="20">
<path d="M19.6032 0H0V20H19.6032V0Z" fill="white"/>
</mask>
<g mask="url(#mask0_373_3097)">
<path d="M19.6032 10.2296C19.6032 9.54983 19.5481 8.86638 19.4304 8.19763H9.99817V12.0485H15.3996C15.1754 13.2904 14.4553 14.3891 13.4007 15.0872V17.5858H16.6232C18.5156 15.8441 19.6032 13.2721 19.6032 10.2296Z" fill="#4285F4"/>
<path d="M9.99813 20C12.6952 20 14.9697 19.1145 16.6268 17.5859L13.4043 15.0873C12.5078 15.6973 11.3503 16.0427 10.0018 16.0427C7.39295 16.0427 5.18094 14.2825 4.38726 11.9163H1.06189V14.492C2.75949 17.8689 6.21714 20 9.99813 20Z" fill="#34A853"/>
<path d="M4.38361 11.9163C3.96473 10.6743 3.96473 9.32947 4.38361 8.08751V5.51172H1.06192C-0.356415 8.33737 -0.356415 11.6664 1.06192 14.492L4.38361 11.9163Z" fill="#FBBC04"/>
<path d="M9.99814 3.95744C11.4238 3.93539 12.8017 4.47185 13.8343 5.45661L16.6893 2.60156C14.8815 0.903977 12.4821 -0.0293319 9.99814 6.35337e-05C6.21713 6.35337e-05 2.75949 2.13124 1.06189 5.51173L4.38359 8.08751C5.17359 5.71749 7.38928 3.95744 9.99814 3.95744Z" fill="#EA4335"/>
</g>
</svg>
