<svg width="123" height="138" viewBox="0 0 123 138" fill="none" xmlns="http://www.w3.org/2000/svg">
<path d="M55.8547 64.1788C36.4276 69.3825 19.082 75.6269 0.695611 85.6874C0.579973 88.347 0.279316 93.7357 0.00178586 94.0133C-0.345127 94.3602 49.9572 74.9331 57.2423 73.8923C58.2831 80.8306 65.5682 120.726 74.9349 137.03C75.9756 135.99 79.0978 133.214 80.1386 132.867C80.8324 128.704 69.3843 81.5244 67.9966 70.7701C83.6077 65.9133 116.911 57.0324 122.462 54.8121C122.693 53.3089 123.086 50.0248 122.809 48.9146C114.136 48.2208 70.7719 58.6282 66.2621 60.7097C62.7929 39.8949 64.5275 3.81604 62.0991 0C60.4802 0.46255 56.8954 1.45703 55.5078 1.73456C53.0794 8.3259 53.7732 48.2208 55.8547 64.1788Z" fill="var(--logo-color)"/>
<path fill-rule="evenodd" clip-rule="evenodd" d="M90.8929 43.7109C98.9399 43.7109 106.157 36.4258 106.157 24.6307C106.157 14.2846 98.9399 5.89746 90.8929 5.89746C82.846 5.89746 75.6288 14.2846 75.6288 24.6307C75.6288 34.9768 81.1794 43.7109 90.8929 43.7109ZM90.8929 33.6505C94.3416 33.6505 97.1374 29.6122 97.1374 24.6308C97.1374 19.6493 94.3416 15.611 90.8929 15.611C87.4442 15.611 84.6485 19.6493 84.6485 24.6308C84.6485 29.6122 87.4442 33.6505 90.8929 33.6505Z" fill="var(--invert-primary-color)"/>
<path fill-rule="evenodd" clip-rule="evenodd" d="M37.4684 131.827C45.5153 131.827 52.7325 124.542 52.7325 112.747C52.7325 102.4 45.5153 94.0133 37.4684 94.0133C29.4214 94.0133 22.2042 102.4 22.2042 112.747C22.2042 123.093 27.7548 131.827 37.4684 131.827ZM37.4684 121.766C40.9171 121.766 43.7128 117.728 43.7128 112.747C43.7128 107.765 40.9171 103.727 37.4684 103.727C34.0197 103.727 31.2239 107.765 31.2239 112.747C31.2239 117.728 34.0197 121.766 37.4684 121.766Z" fill="var(--invert-primary-color)"/>
<path d="M28.4487 31.222C27.6161 31.7771 22.5512 36.7726 20.1228 40.2418C17.6944 37.1196 12.4907 32.2628 11.7969 31.9159C11.45 31.9159 9.02157 34.3443 7.98083 35.385C8.53589 37.6052 13.3002 43.9422 15.6129 46.8331C14.2253 48.5677 10.0623 56.8936 9.02157 59.6689C10.0623 60.7096 14.5722 63.4849 16.3067 64.5256C18.0413 63.138 22.2042 55.5059 23.245 54.4652C23.9388 55.159 31.5709 59.322 33.3054 59.6689L37.4684 55.5059C36.3583 54.1183 30.8771 48.9146 28.1018 46.8331C29.4894 45.0985 32.2647 39.5479 33.6524 35.7319C33.6524 35.4544 30.1832 32.2628 28.4487 31.222Z" fill="var(--invert-negative-color)"/>
<path d="M108.585 77.3615C107.753 77.9166 102.688 82.9121 100.259 86.3812C97.8311 83.259 92.6274 78.4022 91.9336 78.0553C91.5867 78.0553 89.1583 80.4837 88.1176 81.5245C88.6726 83.7447 93.4369 90.0816 95.7496 92.9726C94.362 94.7071 90.199 103.033 89.1583 105.808C90.199 106.849 94.7089 109.624 96.4435 110.665C98.178 109.277 102.341 101.645 103.382 100.605C104.076 101.298 111.708 105.461 113.442 105.808L117.605 101.645C116.495 100.258 111.014 95.054 108.238 92.9726C109.626 91.238 112.401 85.6874 113.789 81.8714C113.789 81.5938 110.32 78.4022 108.585 77.3615Z" fill="var(--invert-negative-color)"/>
</svg>
